<?xml version="1.0" encoding="UTF-8"?> <svg xmlns="http://www.w3.org/2000/svg" id="Layer_1" data-name="Layer 1" viewBox="0 0 750.95 256.3"><path d="M173.83,20.54H160.06V11.72h37.56v8.82h-13.7V58.8H173.83Z"></path><path d="M232.28,11.72h33.31v8.82H242.3v10h22.8v8.83H242.3V50h23.29V58.8H232.28Z"></path><path d="M301.66,11.72H335v8.82H311.69v10h22.8v8.83h-22.8V58.8h-10Z"></path><path d="M370.2,11.72h10V50h19.9V58.8H370.2Z"></path><path d="M163.52,100h7.06V147h-7.06Z"></path><path d="M216.39,111.46V147h-7V100h7.27l25.62,34.73V100h7.06V147h-6.85Z"></path><path d="M289.1,135a19.84,19.84,0,0,0,14.82,6.64c7.63,0,10.31-3.88,10.31-7.27,0-4.94-5.37-6.35-11.37-7.91-7.55-2-16.3-4.16-16.3-13.76,0-7.77,6.84-13.41,16.66-13.41,7.27,0,13,2.33,17.15,6.56l-4.1,5.22a18.36,18.36,0,0,0-13.62-5.5c-5.22,0-8.82,2.68-8.82,6.63,0,4.24,5.08,5.58,10.94,7.06,7.69,2,16.66,4.45,16.66,14.47,0,7.34-5.09,14.19-17.79,14.19-8.4,0-14.54-3-18.57-7.48Z"></path><path d="M368.79,106.16H354.18V100h36.21v6.21H375.85V147h-7.06Z"></path><path d="M426,100H433V147H426Z"></path><path d="M483.29,106.16H468.67V100h36.21v6.21H490.34V147h-7Z"></path><path d="M540.46,100h7.13V128.4c0,8,4.45,13.2,12.71,13.2s12.63-5.15,12.63-13.2V100h7.13v28.59c0,11.72-6.56,19.34-19.76,19.34s-19.84-7.69-19.84-19.27Z"></path><path d="M630.32,106.16H615.71V100h36.21v6.21H637.38V147h-7.06Z"></path><path d="M687.5,100h31.62v6.21H694.55v13.77h24.08v6.21H694.55v14.68h24.57V147H687.5Z"></path><path d="M168.18,194.82v40.45h-4V188.19h4.09l29.51,39.88V188.19h4v47.08h-3.95Z"></path><path d="M241.73,188.19h29.86v3.67H245.76v17.43H271.1V213H245.76V231.6h25.83v3.67H241.73Z"></path><path d="M334.56,194.82l-11.3,40.45h-4.51l-13.49-47.08h4.52l11.37,41.43,11.57-41.43h3.67l11.51,41.43,11.36-41.43h4.52l-13.41,47.08h-4.52Z"></path><path d="M445.73,188.19h15c14.61,0,23.78,10.66,23.78,23.57,0,13.06-9.17,23.51-23.78,23.51h-15Zm15,43.41c12.42,0,19.55-8.82,19.55-19.84s-7.06-19.9-19.55-19.9h-11V231.6Z"></path><path d="M522.81,188.19h29.86v3.67H526.84v17.43h25.34V213H526.84V231.6h25.83v3.67H522.81Z"></path><path d="M590.86,188.19h4V231.6h22.8v3.67H590.86Z"></path><path d="M688.55,212.89H658.69v22.38h-4V188.19h4v21h29.86v-21h4.1v47.08h-4.1Z"></path><path d="M732.53,188.19h4v47.08h-4Z"></path><path d="M90.67,20.26V228.53H13.24V20.26H90.67M103.9,7H0V241.76H103.9V7Z"></path></svg> 